<?xml version="1.0" standalone="no"?><!DOCTYPE svg PUBLIC "-//W3C//DTD SVG 1.1//EN" "http://www.w3.org/Graphics/SVG/1.1/DTD/svg11.dtd"><svg t="1573051439524" class="icon" viewBox="0 0 1024 1024" version="1.1" xmlns="http://www.w3.org/2000/svg" p-id="5737" xmlns:xlink="http://www.w3.org/1999/xlink" width="200" height="200"><defs><style type="text/css"></style></defs><path d="M541.184 97.450667c-244.736 0-443.733333 198.997333-443.733333 443.733333s198.997333 443.733333 443.733333 443.733333 443.733333-198.997333 443.733333-443.733333-198.997333-443.733333-443.733333-443.733333z m0 819.2c-207.018667 0-375.466667-168.448-375.466667-375.466667s168.448-375.466667 375.466667-375.466667 375.466667 168.448 375.466667 375.466667-168.448 375.466667-375.466667 375.466667z" p-id="5738"></path><path d="M689.834667 365.397333c-3.584 0-7.338667 0.682667-11.093334 2.389334l-186.88 82.944a81.8688 81.8688 0 0 0-41.130666 41.130666l-82.944 186.88c-8.362667 18.773333 6.314667 38.058667 24.576 38.058667 3.584 0 7.338667-0.682667 11.093333-2.389333L590.336 631.466667A81.8688 81.8688 0 0 0 631.466667 590.336l82.944-186.88c8.362667-18.773333-6.314667-38.058667-24.576-38.058667z m-120.661334 197.290667a13.312 13.312 0 0 1-6.485333 6.485333l-88.917333 39.424 39.424-88.917333c1.365333-2.901333 3.584-5.12 6.485333-6.485333l88.917333-39.424-39.424 88.917333z" p-id="5739"></path></svg>