<?xml version="1.0" standalone="no"?><!DOCTYPE svg PUBLIC "-//W3C//DTD SVG 1.1//EN" "http://www.w3.org/Graphics/SVG/1.1/DTD/svg11.dtd"><svg t="1572941300908" class="icon" viewBox="0 0 1024 1024" version="1.1" xmlns="http://www.w3.org/2000/svg" p-id="4211" xmlns:xlink="http://www.w3.org/1999/xlink" width="200" height="200"><defs><style type="text/css"></style></defs><path d="M512 128C300.373333 128 128 300.373333 128 512s172.373333 384 384 384 384-172.373333 384-384S723.626667 128 512 128z m0 725.333333c-188.16 0-341.333333-153.173333-341.333333-341.333333S323.84 170.666667 512 170.666667s341.333333 153.173333 341.333333 341.333333-153.173333 341.333333-341.333333 341.333333z" p-id="4212" fill="#515151"></path><path d="M653.013333 343.04l-209.706666 88.96c-5.12 2.133333-9.173333 6.186667-11.306667 11.306667l-88.96 209.706666c-3.413333 8.106667-1.493333 17.28 4.48 23.466667a21.482667 21.482667 0 0 0 23.466667 4.48l209.706666-88.96c5.12-2.133333 9.173333-6.186667 11.306667-11.306667l88.96-209.706666c3.413333-8.106667 1.493333-17.28-4.48-23.466667a21.333333 21.333333 0 0 0-23.466667-4.48z m-96.853333 213.12l-153.173333 65.066667 65.066666-153.173334 153.173334-65.066666-65.066667 153.173333z" p-id="4213" fill="#515151"></path></svg>