<?xml version="1.0" standalone="no"?><!DOCTYPE svg PUBLIC "-//W3C//DTD SVG 1.1//EN" "http://www.w3.org/Graphics/SVG/1.1/DTD/svg11.dtd"><svg t="1572941634788" class="icon" viewBox="0 0 1024 1024" version="1.1" xmlns="http://www.w3.org/2000/svg" p-id="6830" xmlns:xlink="http://www.w3.org/1999/xlink" width="200" height="200"><defs><style type="text/css"></style></defs><path d="M692.705882 60.235294a30.117647 30.117647 0 1 1 0-60.235294h271.058824a60.235294 60.235294 0 0 1 60.235294 60.235294v271.058824a30.117647 30.117647 0 1 1-60.235294 0V60.235294h-271.058824z m271.058824 632.470588a30.117647 30.117647 0 1 1 60.235294 0v271.058824a60.235294 60.235294 0 0 1-60.235294 60.235294h-271.058824a30.117647 30.117647 0 1 1 0-60.235294h271.058824v-271.058824z m-632.470588 271.058824a30.117647 30.117647 0 1 1 0 60.235294H60.235294a60.235294 60.235294 0 0 1-60.235294-60.235294v-271.058824a30.117647 30.117647 0 1 1 60.235294 0v271.058824h271.058824zM60.235294 331.294118a30.117647 30.117647 0 1 1-60.235294 0V60.235294a60.235294 60.235294 0 0 1 60.235294-60.235294h271.058824a30.117647 30.117647 0 1 1 0 60.235294H60.235294v271.058824z m0 210.823529a30.117647 30.117647 0 1 1 0-60.235294h873.411765a30.117647 30.117647 0 1 1 0 60.235294H60.235294z" fill="#515151" p-id="6831"></path></svg>