<?xml version="1.0" standalone="no"?><!DOCTYPE svg PUBLIC "-//W3C//DTD SVG 1.1//EN" "http://www.w3.org/Graphics/SVG/1.1/DTD/svg11.dtd"><svg t="1572941956874" class="icon" viewBox="0 0 1024 1024" version="1.1" xmlns="http://www.w3.org/2000/svg" p-id="5665" xmlns:xlink="http://www.w3.org/1999/xlink" width="200" height="200"><defs><style type="text/css"></style></defs><path d="M661.3 150.4H362.7L303 244.7h418.1l-59.8-94.3zM512 401.7c-86.8 0-157.2 70.4-157.2 157.2 0 86.8 70.4 157.2 157.2 157.2 86.8 0 157.2-70.4 157.2-157.2 0-86.8-70.4-157.2-157.2-157.2z m385.1-156.9H126.9C92.2 244.8 64 273 64 307.7v503c0 34.7 28.2 62.9 62.9 62.9h770.2c34.7 0 62.9-28.2 62.9-62.9v-503c0-34.8-28.2-62.9-62.9-62.9zM512 763.3c-112.9 0-204.4-91.5-204.4-204.4S399.1 354.6 512 354.6 716.4 446.1 716.4 559 624.9 763.3 512 763.3z m306.5-408.5c-17.4 0-31.4-14.1-31.4-31.4 0-17.4 14.1-31.4 31.4-31.4s31.5 14 31.5 31.4c0 17.3-14.1 31.4-31.5 31.4z" fill="#515151" p-id="5666"></path></svg>