<?xml version="1.0" standalone="no"?><!DOCTYPE svg PUBLIC "-//W3C//DTD SVG 1.1//EN" "http://www.w3.org/Graphics/SVG/1.1/DTD/svg11.dtd"><svg t="1572941605150" class="icon" viewBox="0 0 1024 1024" version="1.1" xmlns="http://www.w3.org/2000/svg" p-id="6030" xmlns:xlink="http://www.w3.org/1999/xlink" width="200" height="200"><defs><style type="text/css"></style></defs><path d="M856.896796 356.363287c-17.989665-42.534244-43.742429-80.730286-76.539524-113.527381-32.797095-32.797095-70.994161-58.548835-113.527381-76.539523-44.042427-18.629593-90.820676-28.074936-139.032364-28.074936-48.211688 0-94.988913 9.445342-139.032365 28.073912-42.534244 17.990689-80.730286 43.742429-113.527381 76.539523-32.798119 32.798119-58.549858 70.994161-76.539523 113.527381-18.62857 44.043451-28.073912 90.820676-28.073912 139.032365s9.445342 94.988913 28.073912 139.033388c17.990689 42.53322 43.742429 80.730286 76.539523 113.527381s70.994161 58.549858 113.527381 76.539524c44.043451 18.62857 90.820676 28.073912 139.032365 28.073911 48.211688 0 94.988913-9.445342 139.032364-28.073911 42.53322-17.989665 80.730286-43.742429 113.527381-76.539524s58.549858-70.994161 76.539524-113.527381c18.62857-44.044475 28.073912-90.820676 28.073911-139.033388s-9.444318-94.988913-28.073911-139.031341z m-34.365687-7.709856L670.946934 510.401715l-10.259331-316.267938c70.225223 31.099493 127.613995 86.047323 161.843506 154.519654zM484.026429 611.58923l-69.34161-64.983954-3.080871-94.980722 64.981906-69.339562 94.981746-3.080871 69.340586 64.98293 3.080871 94.980722-64.98293 69.340586-94.979698 3.080871zM632.440655 183.148511l7.189722 221.636361-230.90969-216.399187c36.947926-14.380469 77.104708-22.287936 119.07684-22.287936 36.564993 0 71.753884 5.998944 104.643128 17.050762z m-251.385349 17.513559l161.748284 151.584174-316.267938 10.259331c31.099493-70.225223 86.047323-127.613995 154.519654-161.843505zM198.499624 495.395652c0-36.564993 5.999968-71.75286 17.050762-104.643128l221.635337-7.189723-216.398163 230.90969c-14.380469-36.94895-22.287936-77.104708-22.287936-119.076839z m34.564321 146.742221l151.583151-161.748285 10.25933 316.266914c-70.225223-31.099493-127.612971-86.047323-161.842481-154.518629zM423.153375 807.642792l-7.189723-221.636361 230.910714 216.400211c-36.947926 14.380469-77.103684 22.287936-119.076839 22.287936-36.564993-0.001024-71.753884-5.999968-104.644152-17.051786z m251.386373-17.513558L512.791463 638.546083l316.266914-10.259331c-31.098469 70.225223-86.046299 127.612971-154.518629 161.842482z m165.504919-190.08943l-221.636361 7.189722 216.400211-230.910714c14.380469 36.947926 22.287936 77.104708 22.287936 119.07684 0 36.564993-5.999968 71.753884-17.051786 104.644152z" fill="#515151" p-id="6031"></path></svg>